<?xml version="1.0" encoding="UTF-8" standalone="no"?>
<svg
   xmlns:dc="http://purl.org/dc/elements/1.1/"
   xmlns:cc="http://creativecommons.org/ns#"
   xmlns:rdf="http://www.w3.org/1999/02/22-rdf-syntax-ns#"
   xmlns:svg="http://www.w3.org/2000/svg"
   xmlns="http://www.w3.org/2000/svg"
   xmlns:sodipodi="http://sodipodi.sourceforge.net/DTD/sodipodi-0.dtd"
   xmlns:inkscape="http://www.inkscape.org/namespaces/inkscape"
   version="1.0"
   width="1200.000000pt"
   height="687.000000pt"
   viewBox="0 0 1200.000000 687.000000"
   preserveAspectRatio="xMidYMid meet"
   id="svg3085"
   inkscape:version="0.48.4 r9939"
   sodipodi:docname="CITES_logo_high_resolution2.svg">
  <metadata
     id="metadata3107">
    <rdf:RDF>
      <cc:Work
         rdf:about="">
        <dc:format>image/svg+xml</dc:format>
        <dc:type
           rdf:resource="http://purl.org/dc/dcmitype/StillImage" />
      </cc:Work>
    </rdf:RDF>
  </metadata>
  <defs
     id="defs3105" />
  <sodipodi:namedview
     pagecolor="#ffffff"
     bordercolor="#666666"
     borderopacity="1"
     objecttolerance="10"
     gridtolerance="10"
     guidetolerance="10"
     inkscape:pageopacity="0"
     inkscape:pageshadow="2"
     inkscape:window-width="1634"
     inkscape:window-height="885"
     id="namedview3103"
     showgrid="false"
     inkscape:zoom="0.78"
     inkscape:cx="750"
     inkscape:cy="429.375"
     inkscape:window-x="0"
     inkscape:window-y="0"
     inkscape:window-maximized="0"
     inkscape:current-layer="svg3085" />
  <g
     transform="translate(0.000000,687.000000) scale(0.100000,-0.100000)"
     fill="#000000"
     stroke="none"
     id="g3087">
    <path
       d="M3550 6864 c-421 -52 -716 -149 -1022 -336 -614 -377 -1023 -1000 -1128 -1715 -40 -276 -36 -555 11 -787 41 -206 141 -468 257 -676 191 -344 600 -714 1037 -941 144 -75 317 -148 413 -174 34 -10 62 -21 62 -25 0 -10 -254 -72 -430 -104 -397 -73 -754 -64 -1114 28 -508 131 -1170 480 -1548 818 -43 38 -78 67 -78 63 0 -12 119 -172 214 -289 49 -61 164 -185 255 -276 133 -132 197 -187 321 -275 444 -314 838 -498 1321 -620 272 -68 364 -79 649 -80 342 0 541 30 837 126 516 168 1057 442 1345 683 63 52 68 59 68 96 l0 40 -82 -67 c-167 -134 -432 -295 -689 -416 -198 -94 -209 -99 -394 -172 -451 -179 -734 -234 -1153 -222 -219 6 -332 21 -544 73 -459 112 -848 290 -1269 580 -175 121 -292 220 -454 384 l-130 131 159 -105 c267 -178 458 -281 740 -397 551 -228 1033 -274 1621 -158 440 87 717 192 1095 412 333 194 763 514 1033 768 l68 64 -3 359 -3 360 -65 -58 c-207 -185 -476 -334 -720 -399 -104 -27 -129 -30 -270 -30 -135 0 -168 3 -252 26 -249 66 -483 232 -624 443 -109 164 -147 293 -148 509 -1 156 15 244 66 378 66 171 212 343 397 465 184 121 352 172 596 179 243 8 414 -30 652 -142 96 -45 113 -51 117 -37 8 26 248 795 315 1012 34 106 60 194 59 195 -14 12 -126 62 -209 94 -249 94 -475 153 -749 196 -101 16 -546 29 -630 19z"
       id="path3089" />
    <path
       d="m 5887,6013 -417,-1317 1280,-16 c 0,-1106.6667 0,-2213.3333 0,-3320 506.6667,0 1013.3333,0 1520,0 0,1103.3333 0,2206.6667 0,3310 l 1243,8 -434,1342 z"
       id="path3091"
       inkscape:connector-curvature="0"
       sodipodi:nodetypes="ccccccccc" />
    <path
       d="M10705 5729 c-358 -40 -659 -268 -826 -625 -22 -45 -39 -87 -39 -93 0 -7 63 -11 192 -13 l193 -3 12 -35 c6 -19 84 -244 173 -500 313 -900 387 -1115 384 -1118 -1 -2 -148 -3 -327 -2 -179 0 -328 -3 -330 -7 -3 -5 30 -87 72 -183 291 -658 290 -654 297 -722 8 -82 -8 -154 -47 -207 -47 -65 -71 -73 -233 -72 -77 1 -146 -2 -153 -7 -6 -4 -28 -68 -47 -142 -80 -308 -155 -614 -152 -617 2 -2 179 -4 393 -3 214 0 392 -2 395 -5 3 -4 -13 -80 -37 -170 -36 -138 -41 -165 -28 -169 28 -11 261 -6 411 9 304 31 493 114 665 294 154 161 246 353 307 640 19 87 22 124 17 225 -9 203 -16 222 -284 816 -23 51 -106 230 -173 375 -63 135 -121 258 -188 395 -153 315 -150 450 15 617 134 135 335 137 533 4 24 -17 45 -29 47 -27 2 1 -93 268 -211 592 l-214 589 -89 42 c-48 23 -127 53 -175 67 -164 47 -408 72 -553 55z"
       id="path3093" />
    <path
       d="m 9585,4882 95,-297 -1270,-5 0,-3310 -600,0 0,-1170 2398,0 288,1155 -1131,10 -5,545 459,0 271,1112 -670,18 0,510 1220,9 -494,1420 z"
       id="path3095"
       inkscape:connector-curvature="0"
       sodipodi:nodetypes="ccccccccccccccccc" />
    <path
       d="m 5120,100 c 498.3359,0.932 996.6676,2.99867 1495,5 0,1470 0,2940 0,4410 -498.331,2.4018 -996.6654,3.6676 -1495,5 0,-1473.3333 0,-2946.6667 0,-4420 z"
       id="path3097"
       inkscape:connector-curvature="0"
       sodipodi:nodetypes="ccccc" />
  </g>
</svg>
