<?xml version="1.0" encoding="UTF-8" standalone="no"?>
<svg
   xmlns:dc="http://purl.org/dc/elements/1.1/"
   xmlns:cc="http://creativecommons.org/ns#"
   xmlns:rdf="http://www.w3.org/1999/02/22-rdf-syntax-ns#"
   xmlns:svg="http://www.w3.org/2000/svg"
   xmlns="http://www.w3.org/2000/svg"
   xmlns:sodipodi="http://sodipodi.sourceforge.net/DTD/sodipodi-0.dtd"
   xmlns:inkscape="http://www.inkscape.org/namespaces/inkscape"
   version="1.0"
   width="1200.000000pt"
   height="687.000000pt"
   viewBox="0 0 1200.000000 687.000000"
   preserveAspectRatio="xMidYMid meet"
   id="svg2"
   inkscape:version="0.48.4 r9939"
   sodipodi:docname="CITES_logo_high_resolution.svg">
  <defs
     id="defs24" />
  <sodipodi:namedview
     pagecolor="#ffffff"
     bordercolor="#666666"
     borderopacity="1"
     objecttolerance="10"
     gridtolerance="10"
     guidetolerance="10"
     inkscape:pageopacity="0"
     inkscape:pageshadow="2"
     inkscape:window-width="1579"
     inkscape:window-height="889"
     id="namedview22"
     showgrid="false"
     inkscape:zoom="0.47"
     inkscape:cx="1256.8749"
     inkscape:cy="276.36509"
     inkscape:window-x="0"
     inkscape:window-y="0"
     inkscape:window-maximized="0"
     inkscape:current-layer="g6" />
  <metadata
     id="metadata4">
Created by potrace 1.15, written by Peter Selinger 2001-2017
<rdf:RDF>
  <cc:Work
     rdf:about="">
    <dc:format>image/svg+xml</dc:format>
    <dc:type
       rdf:resource="http://purl.org/dc/dcmitype/StillImage" />
  </cc:Work>
</rdf:RDF>
</metadata>
  <g
     transform="translate(0.000000,687.000000) scale(0.100000,-0.100000)"
     fill="#000000"
     stroke="none"
     id="g6">
    <path
       d="M3450 6854 c-268 -37 -510 -110 -740 -225 -375 -188 -653 -426 -896 -765 -175 -245 -311 -552 -379 -854 -47 -210 -59 -321 -60 -565 0 -261 13 -370 71 -565 119 -408 283 -691 554 -959 307 -303 682 -540 1057 -667 60 -21 111 -40 116 -44 13 -12 -348 -93 -553 -125 -145 -22 -468 -31 -611 -16 -406 42 -859 205 -1359 488 -215 122 -454 294 -605 435 -22 20 -41 35 -43 33 -9 -9 190 -270 316 -415 179 -205 391 -385 657 -557 392 -252 737 -401 1180 -508 225 -55 312 -66 555 -72 343 -8 595 27 906 128 508 165 1051 441 1339 683 33 28 62 51 64 53 5 3 8 67 4 75 -2 4 -37 -19 -78 -51 -291 -232 -710 -453 -1212 -640 -383 -142 -670 -191 -1053 -178 -282 10 -534 62 -880 182 -385 133 -827 385 -1150 655 -88 73 -310 291 -310 304 0 3 22 -11 49 -32 99 -74 340 -219 506 -302 343 -174 634 -276 940 -332 143 -26 501 -36 671 -18 146 14 342 50 534 96 182 43 272 72 433 140 296 125 507 247 907 525 197 136 625 498 643 542 8 20 8 696 0 710 -2 4 -29 -15 -60 -43 -172 -157 -455 -325 -653 -388 -196 -62 -406 -75 -570 -34 -400 98 -720 409 -787 765 -20 107 -13 363 12 457 57 213 199 412 390 545 228 159 449 223 729 212 208 -8 379 -53 570 -149 54 -27 100 -47 103 -44 11 10 383 1212 379 1222 -5 14 -197 96 -331 141 -224 76 -467 131 -695 157 -169 20 -514 20 -660 0z"
       id="path8" />
    <path
       d="m 5463,4693 1287,-13 0,-3320 765,0 765,0 0,3310 1240,8 -436,1337 -3200,5 z"
       id="path10"
       inkscape:connector-curvature="0"
       sodipodi:nodetypes="cccccccccc" />
    <path
       d="m 10685,5729 c -341,-44 -622,-255 -794,-596 -22,-43 -42,-90 -46,-105 l -7,-28 190,0 190,0 11,-27 c 6,-16 43,-120 81,-233 39,-113 120,-347 180,-520 60,-173 154,-442 208,-597 l 99,-283 -334,0 c -183,0 -333,-3 -333,-8 0,-4 38,-93 84,-197 280,-637 285,-649 292,-711 10,-92 -15,-166 -76,-226 -63.303,-44.8811 -106.9,-48 -207,-48 -64.38,-3.1385 -90.143,-2.2857 -151,-6 -19,-68 -202,-755 -202,-764 0,-7 133,-10 395,-10 309,0 395,-3 395,-12 0,-7 -18,-80 -40,-163 -22,-82 -36,-152 -32,-156 20,-19 317,-12 497,11 473,63 769,361 891,898 38,171 30,366 -22,527 -14,40 -170,396 -266,605 -196,426 -275,595 -325,695 -125,252 -150,373 -97,485 68,147 187,238 324,248 100,7 245,-43 329,-113 19,-17 31,-22 31,-13 0,7 -96,276 -213,598 l -212,585 -75,37 c -209,104 -527,157 -765,127 z"
       id="path12"
       inkscape:connector-curvature="0"
       sodipodi:nodetypes="ccccccccsccsscccccsssccccccccccscccc" />
    <path
       d="m 9580,4879 100,-295 -1270,-9 0,-3305 -600,0 -1,-1166 2400,-4 285,1162 -1124,8 0,540 454,5 272,1108 -676,17 0,510 1222,0 -497,1435 z"
       id="path14"
       inkscape:connector-curvature="0"
       sodipodi:nodetypes="ccccccccccccccccc" />
    <path
       d="m 5120,100 1500,0 0,4420 -1500,0 z"
       id="path16"
       inkscape:connector-curvature="0"
       sodipodi:nodetypes="ccccc" />
  </g>
</svg>
