<?xml version="1.0" standalone="no"?>
<!DOCTYPE svg PUBLIC "-//W3C//DTD SVG 20010904//EN"
 "http://www.w3.org/TR/2001/REC-SVG-20010904/DTD/svg10.dtd">
<svg version="1.0" xmlns="http://www.w3.org/2000/svg"
 width="175.029017pt" height="220.438148pt" viewBox="0 0 175.029017 220.438148"
 preserveAspectRatio="xMidYMid meet">
<metadata>
Created by Arie Tegenbosch 2017
</metadata>
<g transform="translate(-4.842832,225.500000) scale(0.100000,-0.100000)"
fill="#FFFFFF" stroke="none">
<path d="M412 2193 c6 -63 43 -146 79 -179 16 -14 17 -20 5 -43 -20 -41 -66
-232 -66 -277 0 -14 -7 -27 -17 -31 -44 -16 -145 -88 -186 -132 -125 -133
-180 -278 -179 -471 2 -219 86 -411 254 -577 l63 -62 1 162 c0 125 4 176 18
224 13 42 15 66 8 79 -8 14 -13 7 -30 -39 -27 -70 -42 -162 -42 -250 0 -38 -4
-66 -8 -63 -23 14 -105 153 -137 230 -109 271 -76 518 94 700 38 40 120 106
133 106 2 0 3 -93 3 -207 0 -115 3 -242 8 -283 22 -216 84 -500 142 -651 19
-51 34 -93 33 -95 -2 -1 -75 -10 -163 -19 -199 -20 -235 -25 -235 -36 0 -10
128 -119 139 -119 10 0 268 58 292 66 12 3 25 -11 48 -50 17 -30 44 -71 62
-90 30 -35 31 -35 60 -20 26 13 32 13 51 -1 26 -17 49 -19 92 -5 17 5 47 12
67 15 50 7 114 66 149 134 l29 58 103 17 c80 14 145 17 291 14 174 -3 187 -2
187 15 0 10 7 20 15 23 37 14 8 24 -72 25 -49 1 -130 4 -182 8 l-93 6 43 31
c61 44 117 70 217 105 l87 30 -60 -6 c-32 -3 -71 -8 -85 -11 -22 -5 -20 -1 15
27 48 40 145 142 140 147 -2 2 -27 -14 -56 -36 -29 -22 -57 -38 -61 -36 -8 5
33 93 79 169 l24 40 -44 -47 c-23 -27 -59 -78 -77 -115 -19 -38 -38 -70 -43
-71 -21 -10 -178 -127 -228 -171 -46 -40 -68 -53 -104 -57 l-45 -7 44 95 c24
53 51 109 60 127 14 27 15 31 2 31 -9 0 -36 -40 -65 -93 -27 -50 -57 -105 -66
-122 l-17 -30 -13 33 c-18 41 -57 44 -97 5 -25 -24 -28 -25 -28 -7 0 28 -28
64 -49 64 -24 0 -50 -30 -66 -77 -17 -51 -50 -57 -59 -12 -14 72 -72 92 -105
38 -19 -30 -19 -31 -30 -10 -15 28 -47 44 -72 36 -12 -4 -29 -25 -39 -48 l-18
-40 -31 99 c-149 486 -170 1005 -55 1411 l26 92 67 -34 c73 -37 140 -64 107
-42 -96 62 -165 120 -193 161 -42 61 -42 75 0 44 69 -52 155 -97 237 -124 79
-26 96 -28 245 -28 177 0 260 16 384 74 74 35 75 35 62 12 -16 -30 -62 -72
-135 -123 -38 -27 -66 -49 -63 -49 21 0 119 47 160 77 27 19 50 33 52 31 1 -2
8 -136 15 -298 7 -162 14 -296 15 -298 1 -1 10 0 19 4 15 6 17 18 14 74 -4 79
1 78 70 -4 88 -103 151 -277 137 -375 -15 -110 -105 -221 -236 -291 -60 -32
-61 -32 -53 -9 27 88 32 213 10 294 -15 58 -48 126 -83 172 -26 34 -25 37 27
48 50 11 110 42 148 78 47 45 39 52 -12 13 -90 -69 -185 -87 -471 -90 -210 -3
-236 -5 -298 -26 -80 -27 -150 -84 -167 -136 -21 -62 -8 -190 24 -253 57 -111
149 -183 276 -216 95 -25 301 -16 428 19 158 44 258 93 332 163 96 89 123 145
128 258 5 105 -16 180 -76 280 -48 80 -63 100 -131 170 l-59 60 -10 205 c-10
190 -10 206 7 225 25 29 46 65 59 104 12 33 12 33 -11 17 -155 -112 -300 -164
-474 -173 -246 -12 -461 63 -630 220 l-66 62 5 -62z m962 -988 c15 -20 40 -64
54 -98 23 -54 26 -76 27 -172 0 -150 -17 -197 -82 -219 -71 -24 -74 -23 -58
23 48 137 13 353 -75 463 -17 20 -30 39 -30 42 0 8 104 12 121 4 9 -4 28 -23
43 -43z m-318 13 c52 -63 83 -156 99 -300 4 -39 3 -58 -4 -58 -6 0 -11 9 -11
20 0 58 -101 238 -179 320 -22 24 -41 45 -41 47 0 1 24 3 54 3 49 0 57 -3 82
-32z m151 -5 c45 -50 81 -129 97 -214 8 -38 12 -69 11 -69 -2 0 -21 35 -42 78
-28 56 -59 99 -119 160 l-81 82 50 0 c44 0 53 -4 84 -37z m-291 -18 c14 -25
34 -71 44 -103 17 -56 37 -202 27 -202 -3 0 -12 21 -21 47 -23 67 -99 184
-151 232 -43 40 -44 42 -23 50 13 4 30 11 38 14 41 15 59 7 86 -38z m-111 -81
c28 -59 43 -145 37 -216 -4 -48 -22 -68 -22 -25 0 33 -75 184 -116 234 l-34
42 37 25 c34 24 38 24 55 9 10 -9 29 -40 43 -69z m456 -128 c25 -52 44 -104
47 -134 5 -57 -20 -157 -42 -165 -8 -3 -42 -9 -75 -13 l-61 -7 14 35 c29 70
39 161 26 255 -10 76 -20 115 -54 208 -4 11 17 -6 48 -37 35 -37 70 -89 97
-142z m-181 3 c61 -120 76 -243 37 -303 -19 -28 -51 -33 -128 -20 l-37 6 18
42 c32 73 43 174 30 277 -6 50 -17 107 -25 126 -8 20 -15 40 -15 46 0 17 88
-111 120 -174z m-374 55 c19 -49 17 -185 -3 -205 -10 -10 -18 0 -37 44 -32 71
-41 141 -26 196 11 41 12 42 30 26 11 -10 27 -37 36 -61z m167 24 c87 -127
114 -240 82 -338 -16 -49 -19 -52 -46 -46 -15 3 -44 12 -63 20 l-35 15 21 48
c36 79 37 247 2 337 -11 29 2 17 39 -36z m-103 -121 c32 -67 46 -140 36 -181
-8 -34 -23 -33 -63 6 -28 27 -31 34 -21 52 7 12 12 58 12 103 1 46 2 83 4 83
2 0 16 -28 32 -63z m248 -519 c23 -23 13 -38 -23 -38 -39 0 -42 5 -18 32 19
21 25 22 41 6z m-302 -23 c16 -13 17 -16 4 -25 -16 -10 -70 -14 -70 -4 0 15
22 44 33 44 7 0 22 -7 33 -15z m122 3 c23 -23 13 -38 -23 -38 -38 0 -40 2 -25
31 12 22 30 25 48 7z m310 -31 c3 -15 -1 -17 -25 -11 -37 9 -41 13 -23 25 21
13 44 7 48 -14z m-139 -3 c48 -10 40 -34 -12 -34 -48 0 -58 5 -50 26 6 16 16
17 62 8z m-259 -29 c0 -8 -8 -15 -17 -15 -10 0 -35 -3 -55 -6 -30 -5 -38 -3
-38 9 0 18 18 24 73 26 27 1 37 -3 37 -14z m110 0 c0 -11 -12 -15 -45 -15 -33
0 -45 4 -45 15 0 11 12 15 45 15 33 0 45 -4 45 -15z m295 -6 c20 -19 -11 -31
-54 -19 -40 10 -49 19 -34 33 8 9 75 -2 88 -14z m-147 -15 c12 -4 22 -13 22
-21 0 -12 -7 -14 -31 -9 -17 3 -38 6 -45 6 -8 0 -14 7 -14 15 0 16 28 19 68 9z
m-258 -24 c0 -13 -7 -20 -19 -20 -10 0 -33 -3 -50 -6 -27 -6 -31 -4 -31 14 0
17 7 22 43 25 23 2 45 4 50 5 4 1 7 -7 7 -18z m114 -5 c-4 -10 -20 -15 -50
-15 -32 0 -44 4 -44 15 0 11 12 15 50 15 40 0 48 -3 44 -15z m278 -1 c5 -3 4
-11 -2 -19 -15 -17 -90 1 -90 22 0 13 8 14 42 9 22 -4 45 -9 50 -12z m-122
-22 c0 -5 -9 -17 -20 -27 -16 -15 -22 -15 -35 -5 -27 22 -18 40 20 40 19 0 35
-4 35 -8z m-270 -15 c0 -8 -9 -22 -20 -32 -19 -17 -21 -17 -40 0 -28 25 -25
33 13 38 17 2 35 5 40 5 4 1 7 -4 7 -11z m355 -2 c29 -6 29 -7 11 -21 -26 -19
-52 -18 -60 2 -9 24 -7 34 7 30 6 -3 25 -7 42 -11z m-255 -4 c0 -12 -29 -41
-40 -41 -9 0 -30 32 -30 44 0 3 16 6 35 6 19 0 35 -4 35 -9z m90 -21 c12 -23
52 -27 69 -6 10 12 16 10 39 -13 25 -23 26 -28 13 -43 -8 -10 -24 -18 -36 -18
-13 0 -28 -7 -35 -15 -12 -14 -15 -14 -31 1 -16 15 -18 14 -21 -8 -2 -15 -11
-24 -25 -26 -13 -2 -23 2 -23 7 0 7 -10 9 -24 5 -17 -4 -25 -1 -30 13 -7 17
-8 17 -17 1 -12 -22 -38 -23 -45 -3 -4 10 -13 13 -26 9 -13 -4 -24 1 -33 13
-17 21 -20 47 -5 38 5 -3 20 5 33 19 l23 25 21 -20 c25 -26 54 -19 73 16 17
32 64 35 80 5z"/>
<path d="M733 1768 c-76 -51 -163 -118 -195 -148 -52 -51 -57 -59 -62 -110
l-6 -55 37 45 c21 25 63 72 95 105 54 57 59 60 97 57 34 -3 42 0 57 22 13 20
14 32 7 49 -9 19 -5 26 34 57 81 63 88 69 81 70 -4 0 -70 -42 -145 -92z"/>
<path d="M1063 1844 l27 -15 -24 -32 c-67 -90 -89 -190 -66 -301 35 -171 260
-245 405 -133 19 15 19 17 3 33 -16 16 -19 16 -36 1 -93 -85 -272 -47 -323 68
-39 87 -34 205 12 296 32 64 40 65 103 14 54 -44 67 -67 46 -80 -5 -3 -10 -17
-10 -30 0 -27 46 -69 67 -60 7 3 19 8 27 11 16 6 90 -92 142 -190 52 -95 40
-43 -15 69 -77 155 -190 279 -313 341 -51 26 -91 33 -45 8z"/>
<path d="M885 1790 c31 -134 29 -201 -7 -280 -12 -25 -20 -49 -19 -55 2 -5 -1
-7 -5 -3 -4 4 -19 -1 -33 -11 -82 -57 -210 -54 -282 6 -25 22 -32 24 -40 12
-13 -22 -6 -32 46 -64 43 -27 57 -30 130 -30 69 0 89 4 134 28 30 15 55 26 56
25 2 -2 17 -32 35 -68 l32 -64 30 58 c31 62 34 101 3 48 -11 -18 -22 -32 -26
-32 -3 0 -11 30 -17 68 -10 55 -10 74 2 107 9 22 15 56 16 75 0 44 -25 142
-46 178 l-15 27 6 -25z"/>
</g>
</svg>
