<!DOCTYPE svg PUBLIC "-//W3C//DTD SVG 20010904//EN" "http://www.w3.org/TR/2001/REC-SVG-20010904/DTD/svg10.dtd">
<svg version="1.0" xmlns="http://www.w3.org/2000/svg" width="186px" height="230px" viewBox="0 0 1860 2300" preserveAspectRatio="xMidYMid meet">
<g id="layer1" fill="#000000" stroke="none">
 <path d="M721 2207 c-18 -23 -43 -61 -54 -84 -12 -24 -28 -43 -36 -43 -8 0 -80 14 -158 31 l-144 31 -37 -26 c-45 -31 -108 -94 -101 -101 6 -6 117 -21 269 -36 63 -6 118 -13 121 -15 4 -2 -9 -44 -27 -94 -48 -126 -91 -298 -121 -485 -24 -141 -27 -190 -27 -406 l-1 -247 -30 15 c-16 9 -60 46 -96 83 -79 80 -132 179 -155 290 -37 174 17 395 140 579 l51 76 7 -115 c6 -110 36 -241 58 -255 18 -11 20 34 4 96 -13 48 -17 105 -17 222 l1 157 -31 -26 c-18 -15 -56 -54 -85 -88 -233 -267 -275 -634 -103 -898 55 -85 150 -174 221 -209 30 -14 52 -32 54 -44 3 -11 12 -58 21 -105 10 -47 26 -113 37 -148 l19 -62 -30 -38 c-38 -47 -61 -111 -61 -170 l0 -45 53 50 c65 61 122 100 214 146 201 102 471 114 678 32 77 -31 178 -87 212 -118 13 -11 25 -18 29 -15 8 8 -20 71 -54 120 l-29 43 11 200 11 200 65 67 c73 75 150 194 180 282 24 68 29 193 10 253 -54 163 -229 281 -510 344 -117 26 -306 26 -389 0 -157 -49 -264 -165 -292 -318 -25 -136 31 -229 167 -280 65 -24 85 -26 329 -34 143 -4 278 -12 301 -18 63 -16 126 -46 162 -75 50 -43 38 -13 -15 33 -32 29 -67 48 -114 62 l-68 21 34 46 c56 79 77 145 82 257 3 68 0 117 -10 153 -8 28 -12 52 -9 52 2 0 30 -14 63 -31 204 -109 273 -288 189 -485 -27 -62 -101 -173 -139 -209 l-33 -30 3 64 c2 52 -1 65 -15 73 -10 5 -19 8 -21 6 -2 -2 -9 -136 -16 -298 -6 -162 -13 -297 -15 -299 -2 -2 -21 11 -43 28 -42 33 -147 84 -163 79 -5 -2 14 -19 44 -38 56 -37 165 -136 157 -144 -3 -3 -32 8 -64 23 -117 56 -241 82 -390 83 -168 0 -300 -38 -435 -127 -44 -29 -80 -49 -80 -46 0 4 15 28 33 53 36 51 99 106 164 145 71 41 42 38 -53 -6 -48 -23 -88 -40 -89 -39 -6 8 -36 111 -49 168 -32 138 -47 287 -47 475 -1 324 30 545 118 827 l36 118 18 -39 c26 -59 75 -64 113 -10 l14 21 7 -21 c3 -12 18 -29 31 -38 24 -15 26 -15 47 6 12 12 27 36 33 54 16 49 36 44 64 -15 14 -29 33 -57 43 -63 24 -14 49 4 63 44 l10 31 24 -25 c35 -37 77 -34 94 6 l13 31 20 -33 c11 -19 40 -72 63 -117 39 -77 62 -103 76 -89 3 3 -22 60 -56 127 l-61 121 48 -7 c39 -5 59 -17 104 -58 31 -29 95 -79 143 -111 77 -53 91 -67 122 -125 33 -63 106 -161 125 -168 6 -2 -7 22 -28 55 -45 70 -79 141 -70 149 3 4 29 -10 57 -30 27 -20 53 -36 56 -36 13 0 -85 105 -129 137 -26 19 -47 37 -45 38 2 2 27 -1 56 -6 104 -19 113 -6 17 24 -103 33 -193 78 -226 113 l-22 24 69 0 c38 0 120 3 182 7 l113 6 -21 22 c-11 12 -20 26 -20 31 0 5 -73 8 -185 5 -141 -2 -206 1 -277 13 -125 23 -122 22 -136 59 -15 42 -72 110 -115 135 -17 11 -50 23 -72 26 -22 3 -55 9 -73 12 -22 4 -40 1 -58 -11 -17 -11 -29 -13 -37 -7 -32 26 -52 21 -86 -21z m215 -31 c5 -22 8 -23 26 -13 16 10 21 9 28 -4 6 -10 18 -15 33 -12 14 3 29 -3 41 -15 17 -19 17 -20 -3 -27 -11 -3 -23 -15 -26 -26 -6 -19 -7 -19 -32 1 -27 21 -55 15 -67 -15 -3 -8 -17 -15 -33 -15 -21 0 -33 8 -45 30 -20 35 -49 39 -78 10 -11 -11 -20 -15 -20 -10 0 6 -13 18 -30 28 -28 17 -29 20 -14 41 11 15 22 20 35 16 12 -4 21 -1 25 9 8 21 30 20 44 -1 9 -17 11 -17 21 0 7 11 17 16 29 12 10 -3 21 -1 25 5 11 18 35 10 41 -14z m-186 -136 c0 -8 -70 -2 -80 7 -3 3 6 14 20 25 l24 20 18 -22 c10 -12 18 -26 18 -30z m100 8 c0 -4 -16 -8 -35 -8 -39 0 -42 5 -18 32 15 17 17 17 35 2 10 -10 18 -21 18 -26z m259 18 c13 -15 -4 -26 -40 -26 -22 0 -24 11 -7 28 16 16 33 15 47 -2z m-111 -8 c21 -21 13 -38 -18 -38 -33 0 -35 3 -20 31 12 22 21 24 38 7z m-275 -38 c20 0 27 -5 27 -19 0 -14 -6 -17 -27 -14 -61 9 -73 14 -73 29 0 12 6 15 23 10 12 -3 34 -6 50 -6z m417 -4 c0 -12 -40 -26 -76 -26 -23 0 -16 28 9 33 46 9 67 7 67 -7z m-280 -11 c0 -11 -12 -15 -45 -15 -33 0 -45 4 -45 15 0 11 12 15 45 15 33 0 45 -4 45 -15z m170 -10 c0 -8 -6 -15 -14 -15 -7 0 -28 -3 -45 -6 -24 -5 -31 -3 -31 9 0 14 19 21 73 26 9 0 17 -6 17 -14z m123 -19 c6 -15 0 -18 -54 -30 -45 -10 -45 20 -1 32 51 14 49 14 55 -2z m-404 -13 c3 -2 0 -8 -6 -14 -17 -17 -103 -2 -103 17 0 12 10 13 53 8 28 -4 54 -8 56 -11z m111 -8 c0 -11 -12 -15 -45 -15 -33 0 -45 4 -45 15 0 11 12 15 45 15 33 0 45 -4 45 -15z m180 -10 c0 -8 -6 -15 -14 -15 -7 0 -28 -3 -45 -6 -24 -5 -31 -3 -31 9 0 17 18 24 63 26 18 1 27 -4 27 -14z m110 -19 c0 -8 -5 -18 -10 -21 -13 -8 -50 3 -50 15 0 7 10 11 53 19 4 0 7 -5 7 -13z m-451 -2 c32 -7 33 -17 1 -34 -14 -7 -23 -6 -34 6 -31 30 -21 39 33 28z m151 -3 c0 -5 -7 -17 -16 -26 -15 -15 -18 -15 -36 2 -20 18 -20 18 4 24 35 10 48 10 48 0z m180 -19 c0 -5 -6 -17 -14 -27 -14 -19 -15 -19 -35 -1 -11 10 -18 23 -15 27 7 11 64 12 64 1z m90 -297 c25 -49 18 -148 -17 -236 -26 -66 -112 -211 -134 -224 -4 -3 2 23 14 58 15 48 20 90 21 182 0 107 -2 127 -25 182 l-26 62 31 4 c17 2 51 4 76 3 39 -1 47 -5 60 -31z m108 14 c49 -10 49 -10 67 -69 11 -36 16 -75 13 -103 -8 -65 -78 -203 -138 -270 -56 -62 -69 -68 -45 -21 49 99 66 322 32 413 -10 24 -17 47 -17 52 0 12 28 11 88 -2z m-278 -41 c32 -71 20 -169 -33 -273 -23 -45 -94 -141 -82 -110 40 100 40 228 0 328 l-23 59 31 13 c82 33 85 33 107 -17z m418 7 l52 -16 21 -71 c39 -127 14 -281 -65 -395 l-33 -48 -66 -3 c-37 -2 -67 0 -67 3 0 3 9 16 21 28 26 28 61 96 85 167 24 73 25 246 1 308 -9 23 -13 42 -8 42 4 0 31 -7 59 -15z m-562 -51 c10 -41 -4 -114 -35 -179 l-29 -60 -1 58 c-1 32 -6 79 -13 104 -11 45 -11 47 21 75 39 35 49 35 57 2z m-91 -177 c0 -74 -4 -99 -20 -126 -29 -49 -42 -49 -55 0 -14 50 -3 123 30 196 30 69 45 45 45 -70z m111 -110 c-8 -29 -29 -74 -46 -100 -32 -51 -44 -53 -84 -9 -18 20 -17 22 12 59 34 42 97 165 108 209 13 56 19 48 22 -29 2 -49 -3 -98 -12 -130z m321 101 c-7 -99 -35 -186 -82 -250 -35 -47 -36 -48 -91 -48 l-57 0 40 43 c81 88 183 264 183 317 0 11 3 20 6 20 4 0 4 -37 1 -82z m-167 -32 c-12 -107 -39 -182 -84 -240 -13 -17 -20 -17 -65 -6 -28 7 -51 15 -51 19 0 4 16 23 36 42 62 59 126 162 158 253 12 36 14 11 6 -68z m315 -53 c-40 -136 -100 -208 -177 -212 l-46 -2 82 83 c59 59 93 104 117 153 38 79 50 68 24 -22z"/>
 <path d="M899 949 c-17 -35 -33 -66 -34 -67 -2 -2 -25 9 -52 25 -43 25 -58 28 -133 28 -88 0 -126 -12 -179 -56 -22 -18 -23 -22 -9 -35 13 -14 19 -13 53 10 107 73 264 50 324 -48 44 -70 48 -152 16 -296 -3 -14 6 -2 20 26 34 69 42 155 21 227 -13 45 -14 66 -6 104 17 78 19 80 41 44 33 -55 39 -24 6 36 -16 32 -31 60 -33 62 -1 1 -17 -26 -35 -60z"/>
 <path d="M1135 966 c-61 -28 -120 -91 -134 -143 -29 -103 -5 -232 58 -312 l32 -40 -28 -15 c-49 -26 -4 -17 53 11 134 65 286 255 350 435 17 50 10 48 -17 -4 -26 -50 -127 -206 -139 -213 -5 -3 -18 0 -29 7 -47 29 -97 -34 -72 -90 12 -24 9 -29 -31 -64 -67 -60 -74 -62 -96 -30 -68 98 -77 267 -18 355 27 42 117 87 170 87 48 -1 110 -21 136 -45 16 -15 22 -15 35 -5 24 20 19 27 -37 60 -69 39 -157 42 -233 6z"/>
 <path d="M473 790 c6 -52 9 -58 71 -116 36 -34 116 -95 178 -136 167 -111 206 -129 98 -45 -55 43 -59 49 -57 83 3 48 -35 80 -76 65 -25 -10 -31 -5 -113 87 -48 53 -91 102 -97 107 -6 7 -8 -9 -4 -45z"/>
 </g>
</svg>